<?xml version="1.0" standalone="no"?>
<!DOCTYPE svg PUBLIC "-//W3C//DTD SVG 20010904//EN"
 "http://www.w3.org/TR/2001/REC-SVG-20010904/DTD/svg10.dtd">
<svg version="1.0" xmlns="http://www.w3.org/2000/svg"
 width="225.000000pt" height="225.000000pt" viewBox="0 0 225.000000 225.000000"
 preserveAspectRatio="xMidYMid meet">

<g transform="translate(0.000000,225.000000) scale(0.100000,-0.100000)"
fill="#000000" stroke="none">
<path d="M978 2031 c-91 -19 -158 -101 -158 -193 l0 -45 -157 -7 c-143 -6
-160 -8 -175 -27 -35 -41 -11 -94 47 -105 l34 -6 3 -622 c3 -564 5 -624 20
-652 23 -43 71 -81 116 -94 52 -14 854 -13 907 1 51 14 110 73 124 124 7 27
11 233 11 641 l0 602 35 6 c57 11 82 64 48 105 -16 19 -33 21 -174 27 l-157 7
-4 58 c-5 72 -41 130 -101 161 -38 20 -59 22 -212 24 -93 2 -187 -1 -207 -5z
m371 -145 c14 -13 21 -31 21 -58 l0 -38 -210 0 -210 0 0 38 c0 38 16 62 50 75
8 3 85 5 171 4 139 -2 159 -4 178 -21z m271 -841 c0 -592 0 -605 -20 -625 -19
-19 -33 -20 -438 -20 -345 0 -422 2 -438 14 -18 14 -19 34 -22 625 l-2 611
460 0 460 0 0 -605z"/>
<path d="M877 1512 c-15 -17 -17 -65 -17 -484 0 -438 1 -466 18 -481 28 -26
78 -22 97 7 14 20 15 81 13 486 -3 444 -4 462 -22 476 -27 19 -70 18 -89 -4z"/>
<path d="M1117 1512 c-15 -17 -17 -65 -17 -485 0 -512 -2 -497 60 -497 62 0
60 -15 60 499 0 441 -1 469 -18 484 -24 22 -65 21 -85 -1z"/>
<path d="M1356 1514 c-9 -8 -18 -25 -21 -37 -3 -12 -4 -224 -3 -470 3 -431 4
-449 22 -463 27 -19 70 -18 89 4 15 17 17 65 17 484 0 438 -1 466 -18 481 -23
21 -66 22 -86 1z"/>
</g>
</svg>
